<?xml version="1.0" encoding="UTF-8"?>
<svg xmlns="http://www.w3.org/2000/svg" xmlns:xlink="http://www.w3.org/1999/xlink" width="65pt" height="65pt" viewBox="0 0 65 65" version="1.1">
<g id="surface16777329">
<path style=" stroke:none;fill-rule:nonzero;fill:rgb(196, 196, 196);fill-opacity:1;" d="M 7.957031 0.285156 C 3.738281 0.285156 0.285156 3.738281 0.285156 7.957031 L 0.285156 57.042969 C 0.285156 61.261719 3.738281 64.714844 7.957031 64.714844 L 33.777344 64.714844 C 33.941406 64.742188 34.109375 64.742188 34.277344 64.714844 L 42.980469 64.714844 C 43.144531 64.742188 43.316406 64.742188 43.480469 64.714844 L 57.042969 64.714844 C 61.261719 64.714844 64.714844 61.261719 64.714844 57.042969 L 64.714844 7.957031 C 64.714844 3.738281 61.261719 0.285156 57.042969 0.285156 Z M 7.957031 3.355469 L 57.042969 3.355469 C 59.601562 3.355469 61.644531 5.398438 61.644531 7.957031 L 61.644531 57.042969 C 61.644531 59.601562 59.601562 61.644531 57.042969 61.644531 L 44.773438 61.644531 L 44.773438 40.171875 L 50.632812 40.171875 L 52.78125 29.433594 L 44.773438 29.433594 L 44.773438 26.363281 C 44.773438 25.507812 44.851562 25.441406 45.140625 25.253906 C 45.425781 25.070312 46.316406 24.828125 47.839844 24.828125 L 52.441406 24.828125 L 52.441406 16.191406 L 51.566406 15.777344 C 51.566406 15.777344 48.042969 14.09375 43.238281 14.09375 C 39.785156 14.09375 36.949219 15.46875 35.136719 17.734375 C 33.320312 20.003906 32.5 23.039062 32.5 26.363281 L 32.5 29.433594 L 27.898438 29.433594 L 27.898438 40.171875 L 32.5 40.171875 L 32.5 61.644531 L 7.957031 61.644531 C 5.398438 61.644531 3.355469 59.601562 3.355469 57.042969 L 3.355469 7.957031 C 3.355469 5.398438 5.398438 3.355469 7.957031 3.355469 Z M 43.238281 17.160156 C 46.425781 17.160156 48.433594 17.863281 49.375 18.234375 L 49.375 21.761719 L 47.839844 21.761719 C 46.074219 21.761719 44.660156 21.90625 43.46875 22.683594 C 42.277344 23.457031 41.703125 24.925781 41.703125 26.363281 L 41.703125 32.5 L 49.035156 32.5 L 48.117188 37.101562 L 41.703125 37.101562 L 41.703125 61.644531 L 35.566406 61.644531 L 35.566406 37.101562 L 30.964844 37.101562 L 30.964844 32.5 L 35.566406 32.5 L 35.566406 26.363281 C 35.566406 23.550781 36.28125 21.21875 37.535156 19.652344 C 38.785156 18.085938 40.554688 17.160156 43.238281 17.160156 Z M 43.238281 17.160156 "/>
</g>
</svg>
